dataset
version=1
nRows=33
nColumns=39
inDegrees=no
endheader
time	sternoclavicular_r2	sternoclavicular_r3	unrotscap_r3	unrotscap_r2	acromioclavicular_r2	acromioclavicular_r3	acromioclavicular_r1	unrothum_r1	unrothum_r3	unrothum_r2	elv_angle	shoulder_elv	shoulder1_r2	shoulder_rot	elbow_flexion	pro_sup	deviation	flexion	cmc_abduction	cmc_flexion	mp_flexion	ip_flexion	mcp2_flexion	mcp2_abduction	pm2_flexion	md2_flexion	mcp3_flexion	mcp3_abduction	pm3_flexion	md3_flexion	mcp4_flexion	mcp4_abduction	pm4_flexion	md4_flexion	mcp5_flexion	mcp5_abduction	pm5_flexion	md5_flexion
1.390000	-0.043390	-0.264204	0.092271	0.162869	0.125127	0.196624	-0.017259	-0.024996	0.214464	0.155492	0.192783	0.027437	0.146525	0.146525	2.048434	1.245588	0.000000	0.000000	0.000000	0.000000	0.000000	0.000000	0.000000	0.000000	0.000000	0.000000	0.000000	0.000000	0.000000	0.000000	0.000000	0.000000	0.000000	0.000000	0.000000	0.000000	0.000000	0.000000
1.395000	-0.043616	-0.263747	0.091921	0.161870	0.123831	0.198035	-0.016258	-0.024654	0.215839	0.153938	0.191732	0.027437	0.146525	0.146525	2.055396	1.245692	0.000000	0.000000	0.000000	0.000000	0.000000	0.000000	0.000000	0.000000	0.000000	0.000000	0.000000	0.000000	0.000000	0.000000	0.000000	0.000000	0.000000	0.000000	0.000000	0.000000	0.000000	0.000000
1.400000	-0.043842	-0.263294	0.091569	0.160863	0.122531	0.199435	-0.015258	-0.024293	0.217192	0.152373	0.190668	0.027437	0.146525	0.146525	2.062302	1.245796	0.000000	0.000000	0.000000	0.000000	0.000000	0.000000	0.000000	0.000000	0.000000	0.000000	0.000000	0.000000	0.000000	0.000000	0.000000	0.000000	0.000000	0.000000	0.000000	0.000000	0.000000	0.000000
1.405000	-0.044067	-0.262845	0.091216	0.159849	0.121225	0.200823	-0.014260	-0.023916	0.218524	0.150798	0.189591	0.027437	0.146525	0.146525	2.069150	1.245901	0.000000	0.000000	0.000000	0.000000	0.000000	0.000000	0.000000	0.000000	0.000000	0.000000	0.000000	0.000000	0.000000	0.000000	0.000000	0.000000	0.000000	0.000000	0.000000	0.000000	0.000000	0.000000
1.410000	-0.044292	-0.262401	0.090861	0.158829	0.119916	0.202197	-0.013266	-0.023520	0.219832	0.149214	0.188502	0.027437	0.146525	0.146525	2.075940	1.246007	0.000000	0.000000	0.000000	0.000000	0.000000	0.000000	0.000000	0.000000	0.000000	0.000000	0.000000	0.000000	0.000000	0.000000	0.000000	0.000000	0.000000	0.000000	0.000000	0.000000	0.000000	0.000000
1.415000	-0.044515	-0.261964	0.090506	0.157804	0.118603	0.203559	-0.012275	-0.023106	0.221115	0.147621	0.187402	0.027437	0.146525	0.146525	2.082669	1.246114	0.000000	0.000000	0.000000	0.000000	0.000000	0.000000	0.000000	0.000000	0.000000	0.000000	0.000000	0.000000	0.000000	0.000000	0.000000	0.000000	0.000000	0.000000	0.000000	0.000000	0.000000	0.000000
1.420000	-0.044738	-0.261532	0.090150	0.156774	0.117288	0.204906	-0.011288	-0.022675	0.222374	0.146021	0.186290	0.027437	0.146525	0.146525	2.089337	1.246221	0.000000	0.000000	0.000000	0.000000	0.000000	0.000000	0.000000	0.000000	0.000000	0.000000	0.000000	0.000000	0.000000	0.000000	0.000000	0.000000	0.000000	0.000000	0.000000	0.000000	0.000000	0.000000
1.425000	-0.044958	-0.261107	0.089795	0.155740	0.115971	0.206238	-0.010307	-0.022226	0.223607	0.144414	0.185168	0.027437	0.146525	0.146525	2.095944	1.246330	0.000000	0.000000	0.000000	0.000000	0.000000	0.000000	0.000000	0.000000	0.000000	0.000000	0.000000	0.000000	0.000000	0.000000	0.000000	0.000000	0.000000	0.000000	0.000000	0.000000	0.000000	0.000000
1.430000	-0.045177	-0.260690	0.089441	0.154702	0.114654	0.207555	-0.009333	-0.021760	0.224814	0.142802	0.184036	0.027437	0.146525	0.146525	2.102489	1.246439	0.000000	0.000000	0.000000	0.000000	0.000000	0.000000	0.000000	0.000000	0.000000	0.000000	0.000000	0.000000	0.000000	0.000000	0.000000	0.000000	0.000000	0.000000	0.000000	0.000000	0.000000	0.000000
1.435000	-0.045394	-0.260280	0.089088	0.153661	0.113335	0.208857	-0.008365	-0.021277	0.225992	0.141184	0.182894	0.027437	0.146525	0.146525	2.108971	1.246550	0.000000	0.000000	0.000000	0.000000	0.000000	0.000000	0.000000	0.000000	0.000000	0.000000	0.000000	0.000000	0.000000	0.000000	0.000000	0.000000	0.000000	0.000000	0.000000	0.000000	0.000000	0.000000
1.440000	-0.045608	-0.259879	0.088737	0.152618	0.112018	0.210142	-0.007405	-0.020777	0.227143	0.139563	0.181743	0.027437	0.146525	0.146525	2.115389	1.246662	0.000000	0.000000	0.000000	0.000000	0.000000	0.000000	0.000000	0.000000	0.000000	0.000000	0.000000	0.000000	0.000000	0.000000	0.000000	0.000000	0.000000	0.000000	0.000000	0.000000	0.000000	0.000000
1.445000	-0.045820	-0.259486	0.088388	0.151573	0.110702	0.211410	-0.006454	-0.020260	0.228265	0.137938	0.180585	0.027437	0.146525	0.146525	2.121744	1.246775	0.000000	0.000000	0.000000	0.000000	0.000000	0.000000	0.000000	0.000000	0.000000	0.000000	0.000000	0.000000	0.000000	0.000000	0.000000	0.000000	0.000000	0.000000	0.000000	0.000000	0.000000	0.000000
1.450000	-0.046028	-0.259102	0.088041	0.150527	0.109388	0.212661	-0.005512	-0.019727	0.229357	0.136312	0.179418	0.027437	0.146525	0.146525	2.128035	1.246890	0.000000	0.000000	0.000000	0.000000	0.000000	0.000000	0.000000	0.000000	0.000000	0.000000	0.000000	0.000000	0.000000	0.000000	0.000000	0.000000	0.000000	0.000000	0.000000	0.000000	0.000000	0.000000
1.455000	-0.046234	-0.258728	0.087698	0.149481	0.108077	0.213895	-0.004581	-0.019178	0.230419	0.134684	0.178245	0.027437	0.146525	0.146525	2.134261	1.247006	0.000000	0.000000	0.000000	0.000000	0.000000	0.000000	0.000000	0.000000	0.000000	0.000000	0.000000	0.000000	0.000000	0.000000	0.000000	0.000000	0.000000	0.000000	0.000000	0.000000	0.000000	0.000000
1.460000	-0.046435	-0.258364	0.087359	0.148435	0.106769	0.215110	-0.003660	-0.018613	0.231450	0.133055	0.177065	0.027437	0.146525	0.146525	2.140424	1.247123	0.000000	0.000000	0.000000	0.000000	0.000000	0.000000	0.000000	0.000000	0.000000	0.000000	0.000000	0.000000	0.000000	0.000000	0.000000	0.000000	0.000000	0.000000	0.000000	0.000000	0.000000	0.000000
1.465000	-0.046633	-0.258010	0.087024	0.147390	0.105467	0.216307	-0.002751	-0.018033	0.232450	0.131428	0.175879	0.027437	0.146525	0.146525	2.146522	1.247243	0.000000	0.000000	0.000000	0.000000	0.000000	0.000000	0.000000	0.000000	0.000000	0.000000	0.000000	0.000000	0.000000	0.000000	0.000000	0.000000	0.000000	0.000000	0.000000	0.000000	0.000000	0.000000
1.470000	-0.046827	-0.257666	0.086693	0.146347	0.104169	0.217484	-0.001854	-0.017439	0.233418	0.129802	0.174689	0.027437	0.146525	0.146525	2.152555	1.247363	0.000000	0.000000	0.000000	0.000000	0.000000	0.000000	0.000000	0.000000	0.000000	0.000000	0.000000	0.000000	0.000000	0.000000	0.000000	0.000000	0.000000	0.000000	0.000000	0.000000	0.000000	0.000000
1.475000	-0.047017	-0.257334	0.086367	0.145307	0.102877	0.218642	-0.000970	-0.016830	0.234354	0.128179	0.173495	0.027437	0.146525	0.146525	2.158524	1.247486	0.000000	0.000000	0.000000	0.000000	0.000000	0.000000	0.000000	0.000000	0.000000	0.000000	0.000000	0.000000	0.000000	0.000000	0.000000	0.000000	0.000000	0.000000	0.000000	0.000000	0.000000	0.000000
1.480000	-0.047202	-0.257012	0.086046	0.144270	0.101593	0.219781	-0.000099	-0.016208	0.235258	0.126559	0.172297	0.027437	0.146525	0.146525	2.164429	1.247610	0.000000	0.000000	0.000000	0.000000	0.000000	0.000000	0.000000	0.000000	0.000000	0.000000	0.000000	0.000000	0.000000	0.000000	0.000000	0.000000	0.000000	0.000000	0.000000	0.000000	0.000000	0.000000
1.485000	-0.047383	-0.256702	0.085730	0.143236	0.100316	0.220899	0.000757	-0.015573	0.236129	0.124945	0.171097	0.027437	0.146525	0.146525	2.170269	1.247736	0.000000	0.000000	0.000000	0.000000	0.000000	0.000000	0.000000	0.000000	0.000000	0.000000	0.000000	0.000000	0.000000	0.000000	0.000000	0.000000	0.000000	0.000000	0.000000	0.000000	0.000000	0.000000
1.490000	-0.047558	-0.256403	0.085421	0.142207	0.099047	0.221997	0.001599	-0.014925	0.236967	0.123336	0.169894	0.027437	0.146525	0.146525	2.176045	1.247864	0.000000	0.000000	0.000000	0.000000	0.000000	0.000000	0.000000	0.000000	0.000000	0.000000	0.000000	0.000000	0.000000	0.000000	0.000000	0.000000	0.000000	0.000000	0.000000	0.000000	0.000000	0.000000
1.495000	-0.047729	-0.256116	0.085117	0.141183	0.097787	0.223075	0.002426	-0.014266	0.237772	0.121733	0.168691	0.027437	0.146525	0.146525	2.181756	1.247993	0.000000	0.000000	0.000000	0.000000	0.000000	0.000000	0.000000	0.000000	0.000000	0.000000	0.000000	0.000000	0.000000	0.000000	0.000000	0.000000	0.000000	0.000000	0.000000	0.000000	0.000000	0.000000
1.500000	-0.047894	-0.255840	0.084820	0.140166	0.096538	0.224131	0.003237	-0.013595	0.238543	0.120139	0.167488	0.027437	0.146525	0.146525	2.187403	1.248125	0.000000	0.000000	0.000000	0.000000	0.000000	0.000000	0.000000	0.000000	0.000000	0.000000	0.000000	0.000000	0.000000	0.000000	0.000000	0.000000	0.000000	0.000000	0.000000	0.000000	0.000000	0.000000
1.505000	-0.048054	-0.255576	0.084530	0.139154	0.095299	0.225166	0.004032	-0.012915	0.239282	0.118553	0.166285	0.027437	0.146525	0.146525	2.192986	1.248258	0.000000	0.000000	0.000000	0.000000	0.000000	0.000000	0.000000	0.000000	0.000000	0.000000	0.000000	0.000000	0.000000	0.000000	0.000000	0.000000	0.000000	0.000000	0.000000	0.000000	0.000000	0.000000
1.510000	-0.048208	-0.255325	0.084246	0.138150	0.094071	0.226180	0.004810	-0.012224	0.239987	0.116978	0.165084	0.027437	0.146525	0.146525	2.198506	1.248394	0.000000	0.000000	0.000000	0.000000	0.000000	0.000000	0.000000	0.000000	0.000000	0.000000	0.000000	0.000000	0.000000	0.000000	0.000000	0.000000	0.000000	0.000000	0.000000	0.000000	0.000000	0.000000
1.515000	-0.048356	-0.255085	0.083970	0.137154	0.092856	0.227173	0.005571	-0.011525	0.240659	0.115413	0.163885	0.027437	0.146525	0.146525	2.203961	1.248532	0.000000	0.000000	0.000000	0.000000	0.000000	0.000000	0.000000	0.000000	0.000000	0.000000	0.000000	0.000000	0.000000	0.000000	0.000000	0.000000	0.000000	0.000000	0.000000	0.000000	0.000000	0.000000
1.520000	-0.048498	-0.254857	0.083701	0.136167	0.091653	0.228143	0.006315	-0.010819	0.241298	0.113860	0.162689	0.027437	0.146525	0.146525	2.209352	1.248672	0.000000	0.000000	0.000000	0.000000	0.000000	0.000000	0.000000	0.000000	0.000000	0.000000	0.000000	0.000000	0.000000	0.000000	0.000000	0.000000	0.000000	0.000000	0.000000	0.000000	0.000000	0.000000
1.525000	-0.048635	-0.254641	0.083440	0.135189	0.090464	0.229092	0.007041	-0.010105	0.241905	0.112320	0.161497	0.027437	0.146525	0.146525	2.214679	1.248814	0.000000	0.000000	0.000000	0.000000	0.000000	0.000000	0.000000	0.000000	0.000000	0.000000	0.000000	0.000000	0.000000	0.000000	0.000000	0.000000	0.000000	0.000000	0.000000	0.000000	0.000000	0.000000
1.530000	-0.048765	-0.254437	0.083186	0.134220	0.089290	0.230018	0.007749	-0.009385	0.242478	0.110794	0.160311	0.027437	0.146525	0.146525	2.219942	1.248958	0.000000	0.000000	0.000000	0.000000	0.000000	0.000000	0.000000	0.000000	0.000000	0.000000	0.000000	0.000000	0.000000	0.000000	0.000000	0.000000	0.000000	0.000000	0.000000	0.000000	0.000000	0.000000
1.535000	-0.048890	-0.254245	0.082940	0.133262	0.088130	0.230922	0.008439	-0.008660	0.243020	0.109284	0.159130	0.027437	0.146525	0.146525	2.225141	1.249105	0.000000	0.000000	0.000000	0.000000	0.000000	0.000000	0.000000	0.000000	0.000000	0.000000	0.000000	0.000000	0.000000	0.000000	0.000000	0.000000	0.000000	0.000000	0.000000	0.000000	0.000000	0.000000
1.540000	-0.049008	-0.254065	0.082702	0.132316	0.086986	0.231804	0.009110	-0.007931	0.243530	0.107789	0.157957	0.027437	0.146525	0.146525	2.230275	1.249254	0.000000	0.000000	0.000000	0.000000	0.000000	0.000000	0.000000	0.000000	0.000000	0.000000	0.000000	0.000000	0.000000	0.000000	0.000000	0.000000	0.000000	0.000000	0.000000	0.000000	0.000000	0.000000
1.545000	-0.049120	-0.253896	0.082473	0.131381	0.085859	0.232664	0.009762	-0.007198	0.244008	0.106312	0.156791	0.027437	0.146525	0.146525	2.235345	1.249405	0.000000	0.000000	0.000000	0.000000	0.000000	0.000000	0.000000	0.000000	0.000000	0.000000	0.000000	0.000000	0.000000	0.000000	0.000000	0.000000	0.000000	0.000000	0.000000	0.000000	0.000000	0.000000
1.550000	-0.049226	-0.253739	0.082251	0.130458	0.084748	0.233501	0.010396	-0.006464	0.244455	0.104852	0.155634	0.027437	0.146525	0.146525	2.240350	1.249559	0.000000	0.000000	0.000000	0.000000	0.000000	0.000000	0.000000	0.000000	0.000000	0.000000	0.000000	0.000000	0.000000	0.000000	0.000000	0.000000	0.000000	0.000000	0.000000	0.000000	0.000000	0.000000
